<svg width="60" height="47" viewBox="0 0 60 47" fill="none" xmlns="http://www.w3.org/2000/svg">
<path d="M3.776 34.392C5.39733 34.392 6.576 34.6853 7.312 35.272C8.05867 35.848 8.432 36.6587 8.432 37.704C8.432 38.3547 8.27733 38.936 7.968 39.448C7.66933 39.96 7.216 40.3653 6.608 40.664C6 40.952 5.25333 41.096 4.368 41.096C3.568 41.096 2.80533 40.968 2.08 40.712C1.36533 40.4453 0.789333 40.0933 0.352 39.656L0.912 38.744C1.28533 39.128 1.776 39.4427 2.384 39.688C2.992 39.9227 3.648 40.04 4.352 40.04C5.28 40.04 5.99467 39.832 6.496 39.416C7.008 39 7.264 38.4453 7.264 37.752C7.264 36.984 6.976 36.4027 6.4 36.008C5.83467 35.6133 4.87467 35.416 3.52 35.416H1.136L1.712 29.8H7.84V30.824H2.72L2.336 34.392H3.776ZM22.13 35.224C22.866 35.384 23.4313 35.704 23.826 36.184C24.2313 36.6533 24.434 37.2613 24.434 38.008C24.434 38.968 24.0767 39.7093 23.362 40.232C22.658 40.744 21.6127 41 20.226 41H15.074V29.8H19.906C21.154 29.8 22.1193 30.0507 22.802 30.552C23.4953 31.0533 23.842 31.7627 23.842 32.68C23.842 33.2987 23.6873 33.8267 23.378 34.264C23.0793 34.6907 22.6633 35.0107 22.13 35.224ZM16.258 30.776V34.84H19.826C20.7327 34.84 21.4313 34.6693 21.922 34.328C22.4127 33.976 22.658 33.4693 22.658 32.808C22.658 32.1467 22.4127 31.6453 21.922 31.304C21.4313 30.952 20.7327 30.776 19.826 30.776H16.258ZM20.21 40.024C21.2127 40.024 21.97 39.8533 22.482 39.512C22.994 39.1707 23.25 38.6373 23.25 37.912C23.25 36.5147 22.2367 35.816 20.21 35.816H16.258V40.024H20.21ZM29.8405 32.52C30.9392 32.52 31.7818 32.7973 32.3685 33.352C32.9552 33.896 33.2485 34.7067 33.2485 35.784V41H32.1605V39.688C31.9045 40.1253 31.5258 40.4667 31.0245 40.712C30.5338 40.9573 29.9472 41.08 29.2645 41.08C28.3258 41.08 27.5792 40.856 27.0245 40.408C26.4698 39.96 26.1925 39.368 26.1925 38.632C26.1925 37.9173 26.4485 37.3413 26.9605 36.904C27.4832 36.4667 28.3098 36.248 29.4405 36.248H32.1125V35.736C32.1125 35.0107 31.9098 34.4613 31.5045 34.088C31.0992 33.704 30.5072 33.512 29.7285 33.512C29.1952 33.512 28.6832 33.6027 28.1925 33.784C27.7018 33.9547 27.2805 34.1947 26.9285 34.504L26.4165 33.656C26.8432 33.2933 27.3552 33.016 27.9525 32.824C28.5498 32.6213 29.1792 32.52 29.8405 32.52ZM29.4405 40.184C30.0805 40.184 30.6298 40.04 31.0885 39.752C31.5472 39.4533 31.8885 39.0267 32.1125 38.472V37.096H29.4725C28.0325 37.096 27.3125 37.5973 27.3125 38.6C27.3125 39.0907 27.4992 39.48 27.8725 39.768C28.2458 40.0453 28.7685 40.184 29.4405 40.184ZM40.766 40.488C40.5527 40.68 40.286 40.8293 39.966 40.936C39.6567 41.032 39.3313 41.08 38.99 41.08C38.2007 41.08 37.5927 40.8667 37.166 40.44C36.7393 40.0133 36.526 39.4107 36.526 38.632V33.544H35.022V32.584H36.526V30.744H37.662V32.584H40.222V33.544H37.662V38.568C37.662 39.0693 37.7847 39.4533 38.03 39.72C38.286 39.976 38.6487 40.104 39.118 40.104C39.3527 40.104 39.5767 40.0667 39.79 39.992C40.014 39.9173 40.206 39.8107 40.366 39.672L40.766 40.488ZM47.122 32.52C48.178 32.52 49.0153 32.8293 49.634 33.448C50.2633 34.056 50.578 34.9467 50.578 36.12V41H49.442V36.232C49.442 35.3573 49.2233 34.6907 48.786 34.232C48.3487 33.7733 47.7247 33.544 46.914 33.544C46.0073 33.544 45.2873 33.816 44.754 34.36C44.2313 34.8933 43.97 35.6347 43.97 36.584V41H42.834V29.128H43.97V34.056C44.2793 33.5653 44.706 33.1867 45.25 32.92C45.794 32.6533 46.418 32.52 47.122 32.52ZM55.9181 41.08C55.2355 41.08 54.5795 40.984 53.9501 40.792C53.3315 40.5893 52.8461 40.3387 52.4941 40.04L53.0061 39.144C53.3581 39.4213 53.8008 39.6507 54.3341 39.832C54.8675 40.0027 55.4221 40.088 55.9981 40.088C56.7661 40.088 57.3315 39.9707 57.6941 39.736C58.0675 39.4907 58.2541 39.1493 58.2541 38.712C58.2541 38.4027 58.1528 38.1627 57.9501 37.992C57.7475 37.8107 57.4915 37.6773 57.1821 37.592C56.8728 37.496 56.4621 37.4053 55.9501 37.32C55.2675 37.192 54.7181 37.064 54.3021 36.936C53.8861 36.7973 53.5288 36.568 53.2301 36.248C52.9421 35.928 52.7981 35.4853 52.7981 34.92C52.7981 34.216 53.0915 33.64 53.6781 33.192C54.2648 32.744 55.0808 32.52 56.1261 32.52C56.6701 32.52 57.2141 32.5947 57.7581 32.744C58.3021 32.8827 58.7501 33.0693 59.1021 33.304L58.6061 34.216C57.9128 33.736 57.0861 33.496 56.1261 33.496C55.4008 33.496 54.8515 33.624 54.4781 33.88C54.1155 34.136 53.9341 34.472 53.9341 34.888C53.9341 35.208 54.0355 35.464 54.2381 35.656C54.4515 35.848 54.7128 35.992 55.0221 36.088C55.3315 36.1733 55.7581 36.264 56.3021 36.36C56.9741 36.488 57.5128 36.616 57.9181 36.744C58.3235 36.872 58.6701 37.0907 58.9581 37.4C59.2461 37.7093 59.3901 38.136 59.3901 38.68C59.3901 39.416 59.0808 40.0027 58.4621 40.44C57.8541 40.8667 57.0061 41.08 55.9181 41.08Z" fill="white"/>
<g clip-path="url(#clip0_1987_16084)">
<path d="M39.7619 11.0558C39.7619 10.7426 39.5079 10.4886 39.1947 10.4886H38.0595V2.75501C38.0595 1.23589 36.8236 0 35.3045 0C33.7853 0 32.5494 1.23589 32.5494 2.75501V3.78902C32.5494 4.10226 32.8034 4.35624 33.1167 4.35624C33.4299 4.35624 33.6839 4.10226 33.6839 3.78902V2.75501C33.6839 1.86141 34.4109 1.13444 35.3045 1.13444C36.198 1.13444 36.925 1.86141 36.925 2.75501V10.4886H21.8053C21.492 10.4886 21.238 10.7426 21.238 11.0558C21.238 13.6158 22.8572 15.8044 25.125 16.6522C24.6888 17.1108 24.4189 17.7397 24.4189 18.4328C24.4189 18.746 24.6729 19 24.9862 19C25.2994 19 25.5534 18.746 25.5534 18.4328C25.5534 17.6583 26.1444 17.0282 26.8708 17.0282C26.8975 17.0282 34.1025 17.0282 34.1292 17.0282C34.8556 17.0282 35.4467 17.6583 35.4467 18.4328C35.4467 18.746 35.7006 19 36.0139 19C36.3271 19 36.5811 18.746 36.5811 18.4328C36.5811 17.7397 36.3112 17.1108 35.875 16.6522C38.1428 15.8044 39.7619 13.6158 39.7619 11.0558ZM33.7896 15.8938H27.2104C24.7346 15.8938 22.6872 14.0245 22.4055 11.6231H38.5945C38.3128 14.0245 36.2654 15.8938 33.7896 15.8938Z" fill="white"/>
<path d="M33.1167 5.34045C32.8034 5.34045 32.5494 5.59443 32.5494 5.90767V6.39926C32.5494 6.7125 32.8034 6.96648 33.1167 6.96648C33.4299 6.96648 33.6839 6.7125 33.6839 6.39926V5.90767C33.6838 5.59439 33.4299 5.34045 33.1167 5.34045Z" fill="white"/>
<path d="M33.1167 8.06311C32.8034 8.06311 32.5494 8.31709 32.5494 8.63033V9.12192C32.5494 9.43516 32.8034 9.68913 33.1167 9.68913C33.4299 9.68913 33.6839 9.43516 33.6839 9.12192V8.63033C33.6838 8.31705 33.4299 8.06311 33.1167 8.06311Z" fill="white"/>
</g>
<defs>
<clipPath id="clip0_1987_16084">
<rect width="19" height="19" fill="white" transform="translate(21)"/>
</clipPath>
</defs>
</svg>
