<svg width="54" height="47" viewBox="0 0 54 47" fill="none" xmlns="http://www.w3.org/2000/svg">
<path d="M10.352 38.056H8.112V41H6.96V38.056H0.64V37.224L6.576 29.8H7.856L2.128 37.032H6.992V34.44H8.112V37.032H10.352V38.056ZM20.6856 32.52C21.475 32.52 22.1896 32.7013 22.8296 33.064C23.4696 33.416 23.971 33.9173 24.3336 34.568C24.6963 35.2187 24.8776 35.96 24.8776 36.792C24.8776 37.624 24.6963 38.3653 24.3336 39.016C23.971 39.6667 23.4696 40.1733 22.8296 40.536C22.1896 40.8987 21.475 41.08 20.6856 41.08C19.9816 41.08 19.347 40.9307 18.7816 40.632C18.227 40.3333 17.779 39.9013 17.4376 39.336V41H16.3496V29.128H17.4856V34.184C17.8376 33.64 18.2856 33.2293 18.8296 32.952C19.3843 32.664 20.003 32.52 20.6856 32.52ZM20.6056 40.072C21.1923 40.072 21.7256 39.9387 22.2056 39.672C22.6856 39.3947 23.059 39.0053 23.3256 38.504C23.603 38.0027 23.7416 37.432 23.7416 36.792C23.7416 36.152 23.603 35.5813 23.3256 35.08C23.059 34.5787 22.6856 34.1947 22.2056 33.928C21.7256 33.6507 21.1923 33.512 20.6056 33.512C20.0083 33.512 19.4696 33.6507 18.9896 33.928C18.5203 34.1947 18.147 34.5787 17.8696 35.08C17.603 35.5813 17.4696 36.152 17.4696 36.792C17.4696 37.432 17.603 38.0027 17.8696 38.504C18.147 39.0053 18.5203 39.3947 18.9896 39.672C19.4696 39.9387 20.0083 40.072 20.6056 40.072ZM34.5214 37.144H27.4814C27.5454 38.0187 27.8814 38.728 28.4894 39.272C29.0974 39.8053 29.8654 40.072 30.7934 40.072C31.316 40.072 31.796 39.9813 32.2334 39.8C32.6707 39.608 33.0494 39.3307 33.3694 38.968L34.0094 39.704C33.636 40.152 33.1667 40.4933 32.6014 40.728C32.0467 40.9627 31.4334 41.08 30.7614 41.08C29.8974 41.08 29.1294 40.8987 28.4574 40.536C27.796 40.1627 27.2787 39.6507 26.9054 39C26.532 38.3493 26.3454 37.6133 26.3454 36.792C26.3454 35.9707 26.5214 35.2347 26.8734 34.584C27.236 33.9333 27.7267 33.4267 28.3454 33.064C28.9747 32.7013 29.6787 32.52 30.4574 32.52C31.236 32.52 31.9347 32.7013 32.5534 33.064C33.172 33.4267 33.6574 33.9333 34.0094 34.584C34.3614 35.224 34.5374 35.96 34.5374 36.792L34.5214 37.144ZM30.4574 33.496C29.6467 33.496 28.964 33.7573 28.4094 34.28C27.8654 34.792 27.556 35.464 27.4814 36.296H33.4494C33.3747 35.464 33.06 34.792 32.5054 34.28C31.9614 33.7573 31.2787 33.496 30.4574 33.496ZM44.5296 29.128V41H43.4416V39.336C43.1003 39.9013 42.647 40.3333 42.0816 40.632C41.527 40.9307 40.8976 41.08 40.1936 41.08C39.4043 41.08 38.6896 40.8987 38.0496 40.536C37.4096 40.1733 36.9083 39.6667 36.5456 39.016C36.183 38.3653 36.0016 37.624 36.0016 36.792C36.0016 35.96 36.183 35.2187 36.5456 34.568C36.9083 33.9173 37.4096 33.416 38.0496 33.064C38.6896 32.7013 39.4043 32.52 40.1936 32.52C40.8763 32.52 41.4896 32.664 42.0336 32.952C42.5883 33.2293 43.0416 33.64 43.3936 34.184V29.128H44.5296ZM40.2896 40.072C40.8763 40.072 41.4043 39.9387 41.8736 39.672C42.3536 39.3947 42.727 39.0053 42.9936 38.504C43.271 38.0027 43.4096 37.432 43.4096 36.792C43.4096 36.152 43.271 35.5813 42.9936 35.08C42.727 34.5787 42.3536 34.1947 41.8736 33.928C41.4043 33.6507 40.8763 33.512 40.2896 33.512C39.6923 33.512 39.1536 33.6507 38.6736 33.928C38.2043 34.1947 37.831 34.5787 37.5536 35.08C37.287 35.5813 37.1536 36.152 37.1536 36.792C37.1536 37.432 37.287 38.0027 37.5536 38.504C37.831 39.0053 38.2043 39.3947 38.6736 39.672C39.1536 39.9387 39.6923 40.072 40.2896 40.072ZM49.9494 41.08C49.2667 41.08 48.6107 40.984 47.9814 40.792C47.3627 40.5893 46.8774 40.3387 46.5254 40.04L47.0374 39.144C47.3894 39.4213 47.832 39.6507 48.3654 39.832C48.8987 40.0027 49.4534 40.088 50.0294 40.088C50.7974 40.088 51.3627 39.9707 51.7254 39.736C52.0987 39.4907 52.2854 39.1493 52.2854 38.712C52.2854 38.4027 52.184 38.1627 51.9814 37.992C51.7787 37.8107 51.5227 37.6773 51.2134 37.592C50.904 37.496 50.4934 37.4053 49.9814 37.32C49.2987 37.192 48.7494 37.064 48.3334 36.936C47.9174 36.7973 47.56 36.568 47.2614 36.248C46.9734 35.928 46.8294 35.4853 46.8294 34.92C46.8294 34.216 47.1227 33.64 47.7094 33.192C48.296 32.744 49.112 32.52 50.1574 32.52C50.7014 32.52 51.2454 32.5947 51.7894 32.744C52.3334 32.8827 52.7814 33.0693 53.1334 33.304L52.6374 34.216C51.944 33.736 51.1174 33.496 50.1574 33.496C49.432 33.496 48.8827 33.624 48.5094 33.88C48.1467 34.136 47.9654 34.472 47.9654 34.888C47.9654 35.208 48.0667 35.464 48.2694 35.656C48.4827 35.848 48.744 35.992 49.0534 36.088C49.3627 36.1733 49.7894 36.264 50.3334 36.36C51.0054 36.488 51.544 36.616 51.9494 36.744C52.3547 36.872 52.7014 37.0907 52.9894 37.4C53.2774 37.7093 53.4214 38.136 53.4214 38.68C53.4214 39.416 53.112 40.0027 52.4934 40.44C51.8854 40.8667 51.0374 41.08 49.9494 41.08Z" fill="white"/>
<path d="M35.2372 8.6246V4.39346C35.2372 3.46064 34.4782 2.70172 33.5454 2.70172H21.4546C20.5218 2.70172 19.7628 3.46064 19.7628 4.39346V8.6246C18.7477 8.90563 18 9.83707 18 10.9404V14.1553C18 14.4668 18.2526 14.7194 18.5641 14.7194H19.7628V15.7341C19.7628 16.0456 20.0154 16.2982 20.3269 16.2982C20.6384 16.2982 20.891 16.0456 20.891 15.7341V14.7194H34.109V15.7341C34.109 16.0456 34.3616 16.2982 34.6731 16.2982C34.9846 16.2982 35.2372 16.0456 35.2372 15.7341V14.7194H36.4359C36.7474 14.7194 37 14.4668 37 14.1553V10.9404C37 9.83707 36.2523 8.90563 35.2372 8.6246ZM20.891 4.39346C20.891 4.08271 21.1438 3.82985 21.4546 3.82985H33.5455C33.8562 3.82985 34.1091 4.08271 34.1091 4.39346V8.53732H32.7874V7.40507C32.7874 6.42053 31.9864 5.61956 31.0019 5.61956H28.7215C28.2493 5.61956 27.8197 5.8041 27.5 6.1045C27.1804 5.80414 26.7508 5.61956 26.2786 5.61956H23.9982C23.0136 5.61956 22.2127 6.42056 22.2127 7.40507V8.53732H20.891V4.39346ZM31.6593 7.40507V8.53732H28.0641V7.40507C28.0641 7.04255 28.359 6.74768 28.7215 6.74768H31.0019C31.3644 6.74768 31.6593 7.04259 31.6593 7.40507ZM26.9359 7.40507V8.53732H23.3407V7.40507C23.3407 7.04255 23.6356 6.74768 23.9981 6.74768H26.2785C26.641 6.74768 26.9359 7.04259 26.9359 7.40507ZM35.8719 13.5912H19.1281V10.9404C19.1281 10.2374 19.7001 9.66544 20.4031 9.66544H34.5969C35.2999 9.66544 35.8719 10.2374 35.8719 10.9404V13.5912Z" fill="white"/>
</svg>
