<svg width="69" height="47" viewBox="0 0 69 47" fill="none" xmlns="http://www.w3.org/2000/svg">
<path d="M3.936 29.8V41H2.784V30.824H0.144V29.8H3.936ZM19.6808 35.4H20.8168V39.672C20.2941 40.1307 19.6754 40.4827 18.9608 40.728C18.2461 40.9733 17.4941 41.096 16.7048 41.096C15.5848 41.096 14.5768 40.8507 13.6808 40.36C12.7848 39.8693 12.0808 39.192 11.5688 38.328C11.0568 37.4533 10.8008 36.4773 10.8008 35.4C10.8008 34.3227 11.0568 33.352 11.5688 32.488C12.0808 31.6133 12.7848 30.9307 13.6808 30.44C14.5768 29.9493 15.5901 29.704 16.7208 29.704C17.5741 29.704 18.3581 29.8427 19.0728 30.12C19.7874 30.3867 20.3901 30.7867 20.8808 31.32L20.1448 32.072C19.2594 31.1973 18.1341 30.76 16.7688 30.76C15.8621 30.76 15.0408 30.9627 14.3048 31.368C13.5794 31.7627 13.0088 32.3173 12.5928 33.032C12.1768 33.736 11.9688 34.5253 11.9688 35.4C11.9688 36.2747 12.1768 37.064 12.5928 37.768C13.0088 38.472 13.5794 39.0267 14.3048 39.432C15.0301 39.8373 15.8461 40.04 16.7528 40.04C17.9048 40.04 18.8808 39.752 19.6808 39.176V35.4ZM26.8718 32.52C27.9704 32.52 28.8131 32.7973 29.3998 33.352C29.9864 33.896 30.2798 34.7067 30.2798 35.784V41H29.1918V39.688C28.9358 40.1253 28.5571 40.4667 28.0558 40.712C27.5651 40.9573 26.9784 41.08 26.2958 41.08C25.3571 41.08 24.6104 40.856 24.0558 40.408C23.5011 39.96 23.2238 39.368 23.2238 38.632C23.2238 37.9173 23.4798 37.3413 23.9918 36.904C24.5144 36.4667 25.3411 36.248 26.4718 36.248H29.1438V35.736C29.1438 35.0107 28.9411 34.4613 28.5358 34.088C28.1304 33.704 27.5384 33.512 26.7598 33.512C26.2264 33.512 25.7144 33.6027 25.2238 33.784C24.7331 33.9547 24.3118 34.1947 23.9598 34.504L23.4478 33.656C23.8744 33.2933 24.3864 33.016 24.9838 32.824C25.5811 32.6213 26.2104 32.52 26.8718 32.52ZM26.4718 40.184C27.1118 40.184 27.6611 40.04 28.1198 39.752C28.5784 39.4533 28.9198 39.0267 29.1438 38.472V37.096H26.5038C25.0638 37.096 24.3438 37.5973 24.3438 38.6C24.3438 39.0907 24.5304 39.48 24.9038 39.768C25.2771 40.0453 25.7998 40.184 26.4718 40.184ZM34.4533 34.232C34.7199 33.6667 35.1146 33.24 35.6373 32.952C36.1706 32.664 36.8266 32.52 37.6053 32.52V33.624L37.3333 33.608C36.4479 33.608 35.7546 33.88 35.2533 34.424C34.7519 34.968 34.5013 35.7307 34.5013 36.712V41H33.3653V32.584H34.4533V34.232ZM42.5905 32.52C43.6892 32.52 44.5318 32.7973 45.1185 33.352C45.7052 33.896 45.9985 34.7067 45.9985 35.784V41H44.9105V39.688C44.6545 40.1253 44.2758 40.4667 43.7745 40.712C43.2838 40.9573 42.6972 41.08 42.0145 41.08C41.0758 41.08 40.3292 40.856 39.7745 40.408C39.2198 39.96 38.9425 39.368 38.9425 38.632C38.9425 37.9173 39.1985 37.3413 39.7105 36.904C40.2332 36.4667 41.0598 36.248 42.1905 36.248H44.8625V35.736C44.8625 35.0107 44.6598 34.4613 44.2545 34.088C43.8492 33.704 43.2572 33.512 42.4785 33.512C41.9452 33.512 41.4332 33.6027 40.9425 33.784C40.4518 33.9547 40.0305 34.1947 39.6785 34.504L39.1665 33.656C39.5932 33.2933 40.1052 33.016 40.7025 32.824C41.2998 32.6213 41.9292 32.52 42.5905 32.52ZM42.1905 40.184C42.8305 40.184 43.3798 40.04 43.8385 39.752C44.2972 39.4533 44.6385 39.0267 44.8625 38.472V37.096H42.2225C40.7825 37.096 40.0625 37.5973 40.0625 38.6C40.0625 39.0907 40.2492 39.48 40.6225 39.768C40.9958 40.0453 41.5185 40.184 42.1905 40.184ZM56.9073 32.584V39.976C56.9073 41.4053 56.5553 42.4613 55.8513 43.144C55.1579 43.8373 54.1073 44.184 52.6993 44.184C51.9206 44.184 51.1793 44.0667 50.4753 43.832C49.7819 43.608 49.2166 43.2933 48.7793 42.888L49.3553 42.024C49.7606 42.3867 50.2513 42.6693 50.8273 42.872C51.4139 43.0747 52.0273 43.176 52.6673 43.176C53.7339 43.176 54.5179 42.9253 55.0193 42.424C55.5206 41.9333 55.7713 41.1653 55.7713 40.12V39.048C55.4193 39.5813 54.9553 39.9867 54.3793 40.264C53.8139 40.5413 53.1846 40.68 52.4913 40.68C51.7019 40.68 50.9819 40.5093 50.3313 40.168C49.6913 39.816 49.1846 39.3307 48.8113 38.712C48.4486 38.0827 48.2673 37.3733 48.2673 36.584C48.2673 35.7947 48.4486 35.0907 48.8113 34.472C49.1846 33.8533 49.6913 33.3733 50.3313 33.032C50.9713 32.6907 51.6913 32.52 52.4913 32.52C53.2059 32.52 53.8513 32.664 54.4273 32.952C55.0033 33.24 55.4673 33.656 55.8193 34.2V32.584H56.9073ZM52.6033 39.672C53.2113 39.672 53.7606 39.544 54.2513 39.288C54.7419 39.0213 55.1206 38.6533 55.3873 38.184C55.6646 37.7147 55.8033 37.1813 55.8033 36.584C55.8033 35.9867 55.6646 35.4587 55.3873 35C55.1206 34.5307 54.7419 34.168 54.2513 33.912C53.7713 33.6453 53.2219 33.512 52.6033 33.512C51.9953 33.512 51.4459 33.64 50.9553 33.896C50.4753 34.152 50.0966 34.5147 49.8193 34.984C49.5526 35.4533 49.4193 35.9867 49.4193 36.584C49.4193 37.1813 49.5526 37.7147 49.8193 38.184C50.0966 38.6533 50.4753 39.0213 50.9553 39.288C51.4459 39.544 51.9953 39.672 52.6033 39.672ZM67.412 37.144H60.372C60.436 38.0187 60.772 38.728 61.38 39.272C61.988 39.8053 62.756 40.072 63.684 40.072C64.2067 40.072 64.6867 39.9813 65.124 39.8C65.5613 39.608 65.94 39.3307 66.26 38.968L66.9 39.704C66.5267 40.152 66.0573 40.4933 65.492 40.728C64.9373 40.9627 64.324 41.08 63.652 41.08C62.788 41.08 62.02 40.8987 61.348 40.536C60.6867 40.1627 60.1693 39.6507 59.796 39C59.4227 38.3493 59.236 37.6133 59.236 36.792C59.236 35.9707 59.412 35.2347 59.764 34.584C60.1267 33.9333 60.6173 33.4267 61.236 33.064C61.8653 32.7013 62.5693 32.52 63.348 32.52C64.1267 32.52 64.8253 32.7013 65.444 33.064C66.0627 33.4267 66.548 33.9333 66.9 34.584C67.252 35.224 67.428 35.96 67.428 36.792L67.412 37.144ZM63.348 33.496C62.5373 33.496 61.8547 33.7573 61.3 34.28C60.756 34.792 60.4467 35.464 60.372 36.296H66.34C66.2653 35.464 65.9507 34.792 65.396 34.28C64.852 33.7573 64.1693 33.496 63.348 33.496Z" fill="white"/>
<path d="M43.2733 7.6122L42.8592 7.17374L41.4058 3.25601C41.1581 2.59425 40.5248 2.15579 39.8184 2.15173H29.4374C28.731 2.15173 28.0976 2.59425 27.85 3.25601L26.4169 7.12502L25.8201 7.67716C25.3004 8.11968 25 8.76925 25 9.45131V15.1594C25.0041 16.0932 25.7632 16.8483 26.697 16.8483H27.7688C28.7026 16.8483 29.4618 16.0932 29.4658 15.1594V14.3312H39.5342V15.1594C39.5382 16.0932 40.2974 16.8483 41.2312 16.8483H42.303C43.2368 16.8483 43.9959 16.0932 44 15.1594V9.30109C43.9959 8.6637 43.7361 8.05472 43.2733 7.6122ZM28.6132 3.53208C28.7432 3.18699 29.072 2.9637 29.4374 2.9637H39.8224C40.1878 2.9637 40.5167 3.19105 40.6466 3.53208L41.9132 6.94233H40.9673C40.744 5.4199 39.3271 4.3684 37.8047 4.59575C36.5908 4.77438 35.6368 5.72844 35.4581 6.94233H27.3466L28.6132 3.53208ZM40.1391 6.94233H36.2782C36.5015 5.8746 37.5489 5.19254 38.6167 5.41584C39.3799 5.57823 39.9767 6.17502 40.1391 6.94233ZM28.6538 15.1594C28.6498 15.6466 28.256 16.0363 27.7688 16.0363H26.697C26.2098 16.0363 25.816 15.6466 25.812 15.1594V14.0957C26.0556 14.2541 26.3763 14.3312 26.697 14.3312H28.6538V15.1594ZM43.188 15.1594C43.184 15.6466 42.7902 16.0363 42.303 16.0363H41.2312C40.744 16.0363 40.3502 15.6425 40.3462 15.1594V14.3312H42.303C42.6237 14.3312 42.9444 14.2541 43.188 14.0957V15.1594ZM42.303 13.5193H26.697C26.2139 13.5233 25.816 13.1376 25.812 12.6505V9.45131C25.812 9.00472 26.0109 8.57844 26.3519 8.29019C26.356 8.28613 26.3641 8.27802 26.3682 8.27396L26.9203 7.7543H42.2949L42.6846 8.17246C42.6887 8.18058 42.7009 8.18464 42.7049 8.19276C43.0094 8.48101 43.184 8.88293 43.184 9.30109V12.6505H43.188C43.184 13.1336 42.7861 13.5233 42.303 13.5193Z" fill="white"/>
<path d="M30.3589 9.37817H27.3141C27.0908 9.37817 26.9081 9.56087 26.9081 9.78416V11.8953C26.9081 12.1186 27.0908 12.3013 27.3141 12.3013H30.3589C30.5822 12.3013 30.7649 12.1186 30.7649 11.8953V9.78416C30.7649 9.56087 30.5822 9.37817 30.3589 9.37817ZM29.953 11.4893H27.72V10.1901H29.953V11.4893Z" fill="white"/>
<path d="M41.6859 9.37817H38.641C38.4177 9.37817 38.235 9.56087 38.235 9.78416V11.8953C38.235 12.1186 38.4177 12.3013 38.641 12.3013H41.6859C41.9092 12.3013 42.0919 12.1186 42.0919 11.8953V9.78416C42.0919 9.56087 41.9092 9.37817 41.6859 9.37817ZM41.2799 11.4893H39.047V10.1901H41.2799V11.4893Z" fill="white"/>
<path d="M36.4609 11.0833H32.5391C32.3158 11.0833 32.1331 11.266 32.1331 11.4893C32.1331 11.7126 32.3158 11.8953 32.5391 11.8953H36.4609C36.6842 11.8953 36.8669 11.7126 36.8669 11.4893C36.8669 11.266 36.6842 11.0833 36.4609 11.0833Z" fill="white"/>
<path d="M36.4609 9.82477H32.5391C32.3158 9.82477 32.1331 10.0075 32.1331 10.2307C32.1331 10.454 32.3158 10.6367 32.5391 10.6367H36.4609C36.6842 10.6367 36.8669 10.454 36.8669 10.2307C36.8669 10.0075 36.6842 9.82477 36.4609 9.82477Z" fill="white"/>
</svg>
