<svg width="82" height="47" viewBox="0 0 82 47" fill="none" xmlns="http://www.w3.org/2000/svg">
<path d="M3.936 29.8V41H2.784V30.824H0.144V29.8H3.936ZM14.2613 39.976V41H6.40525V40.184L11.0613 35.624C11.6479 35.048 12.0426 34.552 12.2453 34.136C12.4586 33.7093 12.5653 33.2827 12.5653 32.856C12.5653 32.1947 12.3359 31.6827 11.8773 31.32C11.4293 30.9467 10.7839 30.76 9.94125 30.76C8.62925 30.76 7.61058 31.176 6.88525 32.008L6.06925 31.304C6.50658 30.792 7.06125 30.3973 7.73325 30.12C8.41592 29.8427 9.18392 29.704 10.0373 29.704C11.1786 29.704 12.0799 29.976 12.7413 30.52C13.4133 31.0533 13.7493 31.7893 13.7493 32.728C13.7493 33.304 13.6213 33.8587 13.3653 34.392C13.1093 34.9253 12.6239 35.5387 11.9093 36.232L8.10125 39.976H14.2613ZM20.1085 41.096C19.2445 41.096 18.4712 40.8667 17.7885 40.408C17.1165 39.9493 16.5885 39.2933 16.2045 38.44C15.8312 37.576 15.6445 36.5627 15.6445 35.4C15.6445 34.2373 15.8312 33.2293 16.2045 32.376C16.5885 31.512 17.1165 30.8507 17.7885 30.392C18.4712 29.9333 19.2445 29.704 20.1085 29.704C20.9725 29.704 21.7405 29.9333 22.4125 30.392C23.0952 30.8507 23.6285 31.512 24.0125 32.376C24.3965 33.2293 24.5885 34.2373 24.5885 35.4C24.5885 36.5627 24.3965 37.576 24.0125 38.44C23.6285 39.2933 23.0952 39.9493 22.4125 40.408C21.7405 40.8667 20.9725 41.096 20.1085 41.096ZM20.1085 40.04C20.7592 40.04 21.3298 39.8587 21.8205 39.496C22.3218 39.1333 22.7112 38.6053 22.9885 37.912C23.2658 37.2187 23.4045 36.3813 23.4045 35.4C23.4045 34.4187 23.2658 33.5813 22.9885 32.888C22.7112 32.1947 22.3218 31.6667 21.8205 31.304C21.3298 30.9413 20.7592 30.76 20.1085 30.76C19.4578 30.76 18.8818 30.9413 18.3805 31.304C17.8898 31.6667 17.5058 32.1947 17.2285 32.888C16.9512 33.5813 16.8125 34.4187 16.8125 35.4C16.8125 36.3813 16.9512 37.2187 17.2285 37.912C17.5058 38.6053 17.8898 39.1333 18.3805 39.496C18.8818 39.8587 19.4578 40.04 20.1085 40.04ZM30.7023 41.096C29.8383 41.096 29.0649 40.8667 28.3823 40.408C27.7103 39.9493 27.1823 39.2933 26.7983 38.44C26.4249 37.576 26.2383 36.5627 26.2383 35.4C26.2383 34.2373 26.4249 33.2293 26.7983 32.376C27.1823 31.512 27.7103 30.8507 28.3823 30.392C29.0649 29.9333 29.8383 29.704 30.7023 29.704C31.5663 29.704 32.3343 29.9333 33.0063 30.392C33.6889 30.8507 34.2223 31.512 34.6063 32.376C34.9903 33.2293 35.1823 34.2373 35.1823 35.4C35.1823 36.5627 34.9903 37.576 34.6063 38.44C34.2223 39.2933 33.6889 39.9493 33.0063 40.408C32.3343 40.8667 31.5663 41.096 30.7023 41.096ZM30.7023 40.04C31.3529 40.04 31.9236 39.8587 32.4143 39.496C32.9156 39.1333 33.3049 38.6053 33.5823 37.912C33.8596 37.2187 33.9983 36.3813 33.9983 35.4C33.9983 34.4187 33.8596 33.5813 33.5823 32.888C33.3049 32.1947 32.9156 31.6667 32.4143 31.304C31.9236 30.9413 31.3529 30.76 30.7023 30.76C30.0516 30.76 29.4756 30.9413 28.9743 31.304C28.4836 31.6667 28.0996 32.1947 27.8223 32.888C27.5449 33.5813 27.4062 34.4187 27.4062 35.4C27.4062 36.3813 27.5449 37.2187 27.8223 37.912C28.0996 38.6053 28.4836 39.1333 28.9743 39.496C29.4756 39.8587 30.0516 40.04 30.7023 40.04ZM45.0995 41.096C44.2675 41.096 43.4675 40.9627 42.6995 40.696C41.9422 40.4293 41.3555 40.0773 40.9395 39.64L41.4035 38.728C41.8088 39.1333 42.3475 39.464 43.0195 39.72C43.6915 39.9653 44.3848 40.088 45.0995 40.088C46.1022 40.088 46.8542 39.9067 47.3555 39.544C47.8568 39.1707 48.1075 38.6907 48.1075 38.104C48.1075 37.656 47.9688 37.2987 47.6915 37.032C47.4248 36.7653 47.0942 36.5627 46.6995 36.424C46.3048 36.2747 45.7555 36.1147 45.0515 35.944C44.2088 35.7307 43.5368 35.528 43.0355 35.336C42.5342 35.1333 42.1022 34.8293 41.7395 34.424C41.3875 34.0187 41.2115 33.4693 41.2115 32.776C41.2115 32.2107 41.3608 31.6987 41.6595 31.24C41.9582 30.7707 42.4168 30.3973 43.0355 30.12C43.6542 29.8427 44.4222 29.704 45.3395 29.704C45.9795 29.704 46.6035 29.7947 47.2115 29.976C47.8302 30.1467 48.3635 30.3867 48.8115 30.696L48.4115 31.64C47.9422 31.3307 47.4408 31.1013 46.9075 30.952C46.3742 30.792 45.8515 30.712 45.3395 30.712C44.3582 30.712 43.6168 30.904 43.1155 31.288C42.6248 31.6613 42.3795 32.1467 42.3795 32.744C42.3795 33.192 42.5128 33.5547 42.7795 33.832C43.0568 34.0987 43.3982 34.3067 43.8035 34.456C44.2195 34.5947 44.7742 34.7493 45.4675 34.92C46.2888 35.1227 46.9502 35.3253 47.4515 35.528C47.9635 35.72 48.3955 36.0187 48.7475 36.424C49.0995 36.8187 49.2755 37.3573 49.2755 38.04C49.2755 38.6053 49.1208 39.1227 48.8115 39.592C48.5128 40.0507 48.0488 40.4187 47.4195 40.696C46.7902 40.9627 46.0168 41.096 45.0995 41.096ZM59.2953 32.584V44.104H58.1593V39.416C57.8073 39.96 57.3539 40.376 56.7993 40.664C56.2553 40.9413 55.6419 41.08 54.9593 41.08C54.1593 41.08 53.4393 40.904 52.7993 40.552C52.1699 40.1893 51.6739 39.6827 51.3113 39.032C50.9486 38.3813 50.7673 37.6347 50.7673 36.792C50.7673 35.96 50.9486 35.2187 51.3113 34.568C51.6739 33.9173 52.1753 33.416 52.8153 33.064C53.4553 32.7013 54.1699 32.52 54.9593 32.52C55.6633 32.52 56.2926 32.6693 56.8473 32.968C57.4126 33.2667 57.8659 33.6933 58.2073 34.248V32.584H59.2953ZM55.0553 40.072C55.6419 40.072 56.1699 39.9387 56.6393 39.672C57.1193 39.3947 57.4926 39.0053 57.7593 38.504C58.0366 38.0027 58.1753 37.432 58.1753 36.792C58.1753 36.152 58.0366 35.5867 57.7593 35.096C57.4926 34.5947 57.1193 34.2053 56.6393 33.928C56.1699 33.6507 55.6419 33.512 55.0553 33.512C54.4579 33.512 53.9193 33.6507 53.4393 33.928C52.9699 34.2053 52.5966 34.5947 52.3193 35.096C52.0526 35.5867 51.9193 36.152 51.9193 36.792C51.9193 37.432 52.0526 38.0027 52.3193 38.504C52.5966 39.0053 52.9699 39.3947 53.4393 39.672C53.9193 39.9387 54.4579 40.072 55.0553 40.072ZM68.0705 30.824V35.224H73.8625V36.248H68.0705V41H66.8865V29.8H74.5665V30.824H68.0705ZM81.2035 40.488C80.9902 40.68 80.7235 40.8293 80.4035 40.936C80.0942 41.032 79.7688 41.08 79.4275 41.08C78.6382 41.08 78.0302 40.8667 77.6035 40.44C77.1768 40.0133 76.9635 39.4107 76.9635 38.632V33.544H75.4595V32.584H76.9635V30.744H78.0995V32.584H80.6595V33.544H78.0995V38.568C78.0995 39.0693 78.2222 39.4533 78.4675 39.72C78.7235 39.976 79.0862 40.104 79.5555 40.104C79.7902 40.104 80.0142 40.0667 80.2275 39.992C80.4515 39.9173 80.6435 39.8107 80.8035 39.672L81.2035 40.488Z" fill="white"/>
<g clip-path="url(#clip0_1987_16114)">
<path d="M49.1488 0.146911L33.1473 16.1484C32.8339 16.4618 33.0563 17.0002 33.5002 17.0002H49.5016C49.7772 17.0002 50.0006 16.7768 50.0006 16.5012V0.499775C50.0007 0.056491 49.4627 -0.166964 49.1488 0.146911ZM49.0027 16.0022H34.7049L37.2428 13.4644L37.9378 14.1595C38.0353 14.2569 38.163 14.3056 38.2907 14.3056C38.7313 14.3056 38.9588 13.769 38.6435 13.4537L37.9484 12.7587L39.3718 11.3353L40.0669 12.0304C40.1643 12.1278 40.292 12.1765 40.4197 12.1765C40.8603 12.1765 41.0878 11.6399 40.7726 11.3246L40.0775 10.6296L41.5009 9.2062L42.196 9.90128C42.2934 9.99872 42.4211 10.0474 42.5488 10.0474C42.9894 10.0474 43.2169 9.51083 42.9016 9.19556L42.2066 8.50051L43.63 7.07711L44.3251 7.77219C44.4225 7.86963 44.5502 7.91833 44.6779 7.91833C45.1185 7.91833 45.346 7.38173 45.0307 7.06646L44.3357 6.37141L45.7591 4.94802L46.4542 5.6431C46.5516 5.74054 46.6793 5.78924 46.807 5.78924C47.2476 5.78924 47.4751 5.25264 47.1598 4.93737L46.4648 4.24232L49.0026 1.70448V16.0022H49.0027Z" fill="white"/>
<path d="M45.9212 8.39685L41.3969 12.9212C41.0834 13.2346 41.3058 13.773 41.7497 13.773H46.274C46.5496 13.773 46.773 13.5496 46.773 13.274V8.74971C46.773 8.30643 46.2351 8.08298 45.9212 8.39685ZM45.775 12.775H42.9544L45.775 9.95441V12.775Z" fill="white"/>
</g>
<defs>
<clipPath id="clip0_1987_16114">
<rect width="17" height="17" fill="white" transform="translate(33)"/>
</clipPath>
</defs>
</svg>
